<svg width="2332" height="2189" xmlns="http://www.w3.org/2000/svg" xmlns:xlink="http://www.w3.org/1999/xlink" xml:space="preserve" overflow="hidden"><defs><clipPath id="clip0"><rect x="360" y="176" width="2332" height="2189"/></clipPath><clipPath id="clip1"><rect x="766" y="412" width="331" height="331"/></clipPath><clipPath id="clip2"><rect x="766" y="412" width="331" height="331"/></clipPath><clipPath id="clip3"><rect x="766" y="412" width="331" height="331"/></clipPath><clipPath id="clip4"><rect x="766" y="1447" width="331" height="331"/></clipPath><clipPath id="clip5"><rect x="766" y="1447" width="331" height="331"/></clipPath><clipPath id="clip6"><rect x="766" y="1447" width="331" height="331"/></clipPath><clipPath id="clip7"><rect x="766" y="929" width="331" height="331"/></clipPath><clipPath id="clip8"><rect x="766" y="929" width="331" height="331"/></clipPath><clipPath id="clip9"><rect x="766" y="929" width="331" height="331"/></clipPath><clipPath id="clip10"><rect x="1908" y="412" width="331" height="331"/></clipPath><clipPath id="clip11"><rect x="1908" y="412" width="331" height="331"/></clipPath><clipPath id="clip12"><rect x="1908" y="412" width="331" height="331"/></clipPath><clipPath id="clip13"><rect x="1908" y="1963" width="331" height="331"/></clipPath><clipPath id="clip14"><rect x="1908" y="1963" width="331" height="331"/></clipPath><clipPath id="clip15"><rect x="1908" y="1963" width="331" height="331"/></clipPath><clipPath id="clip16"><rect x="1908" y="1445" width="331" height="331"/></clipPath><clipPath id="clip17"><rect x="1908" y="1445" width="331" height="331"/></clipPath><clipPath id="clip18"><rect x="1908" y="1445" width="331" height="331"/></clipPath><clipPath id="clip19"><rect x="1908" y="929" width="331" height="331"/></clipPath><clipPath id="clip20"><rect x="1908" y="929" width="331" height="331"/></clipPath><clipPath id="clip21"><rect x="1908" y="929" width="331" height="331"/></clipPath></defs><g clip-path="url(#clip0)" transform="translate(-360 -176)"><g clip-path="url(#clip1)"><g clip-path="url(#clip2)"><g clip-path="url(#clip3)"><path d="M1055.75 677.687 959.5 677.687 959.5 663.937 935.437 663.937 935.437 633 1028.25 633C1035.84 633 1042 626.844 1042 619.25L1042 584.875C1041.99 580.911 1040.25 577.148 1037.25 574.562 1040.25 571.977 1041.99 568.214 1042 564.25L1042 529.875C1041.99 525.911 1040.25 522.148 1037.25 519.562 1040.25 516.977 1041.99 513.214 1042 509.25L1042 474.875C1042 467.281 1035.84 461.125 1028.25 461.125L835.75 461.125C828.156 461.125 822 467.281 822 474.875L822 509.25C822.013 513.214 823.746 516.977 826.75 519.562 823.746 522.148 822.013 525.911 822 529.875L822 564.25C822.013 568.214 823.746 571.977 826.75 574.562 823.746 577.148 822.013 580.911 822 584.875L822 619.25C822 626.844 828.156 633 835.75 633L928.562 633 928.562 663.937 904.5 663.937 904.5 677.687 808.25 677.687 808.25 684.562 904.5 684.562 904.5 698.312 959.5 698.312 959.5 684.562 1055.75 684.562ZM828.875 509.25 828.875 474.875C828.875 471.078 831.953 468 835.75 468L1028.25 468C1032.05 468 1035.12 471.078 1035.12 474.875L1035.12 509.25C1035.12 513.047 1032.05 516.125 1028.25 516.125L835.75 516.125C831.953 516.125 828.875 513.047 828.875 509.25ZM828.875 564.25 828.875 529.875C828.875 526.078 831.953 523 835.75 523L1028.25 523C1032.05 523 1035.12 526.078 1035.12 529.875L1035.12 564.25C1035.12 568.047 1032.05 571.125 1028.25 571.125L835.75 571.125C831.953 571.125 828.875 568.047 828.875 564.25ZM828.875 619.25 828.875 584.875C828.875 581.078 831.953 578 835.75 578L1028.25 578C1032.05 578 1035.12 581.078 1035.12 584.875L1035.12 619.25C1035.12 623.047 1032.05 626.125 1028.25 626.125L835.75 626.125C831.953 626.125 828.875 623.047 828.875 619.25ZM952.625 691.437 911.375 691.437 911.375 670.812 952.625 670.812Z"/><path d="M863.25 492.062C863.25 495.859 860.172 498.937 856.375 498.937 852.578 498.937 849.5 495.859 849.5 492.062 849.5 488.265 852.578 485.187 856.375 485.187 860.172 485.187 863.25 488.265 863.25 492.062Z"/><path d="M897.625 492.062C897.625 495.859 894.547 498.937 890.75 498.937 886.953 498.937 883.875 495.859 883.875 492.062 883.875 488.265 886.953 485.187 890.75 485.187 894.547 485.187 897.625 488.265 897.625 492.062Z"/><path d="M932 492.062C932 495.859 928.922 498.937 925.125 498.937 921.328 498.937 918.25 495.859 918.25 492.062 918.25 488.265 921.328 485.187 925.125 485.187 928.922 485.187 932 488.265 932 492.062Z"/><path d="M863.25 547.062C863.25 550.859 860.172 553.937 856.375 553.937 852.578 553.937 849.5 550.859 849.5 547.062 849.5 543.265 852.578 540.187 856.375 540.187 860.172 540.187 863.25 543.265 863.25 547.062Z"/><path d="M897.625 547.062C897.625 550.859 894.547 553.937 890.75 553.937 886.953 553.937 883.875 550.859 883.875 547.062 883.875 543.265 886.953 540.187 890.75 540.187 894.547 540.187 897.625 543.265 897.625 547.062Z"/><path d="M932 547.062C932 550.859 928.922 553.937 925.125 553.937 921.328 553.937 918.25 550.859 918.25 547.062 918.25 543.265 921.328 540.187 925.125 540.187 928.922 540.187 932 543.265 932 547.062Z"/><path d="M863.25 602.062C863.25 605.859 860.172 608.937 856.375 608.937 852.578 608.937 849.5 605.859 849.5 602.062 849.5 598.265 852.578 595.187 856.375 595.187 860.172 595.187 863.25 598.265 863.25 602.062Z"/><path d="M897.625 602.062C897.625 605.859 894.547 608.937 890.75 608.937 886.953 608.937 883.875 605.859 883.875 602.062 883.875 598.265 886.953 595.187 890.75 595.187 894.547 595.187 897.625 598.265 897.625 602.062Z"/><path d="M932 602.062C932 605.859 928.922 608.937 925.125 608.937 921.328 608.937 918.25 605.859 918.25 602.062 918.25 598.265 921.328 595.187 925.125 595.187 928.922 595.187 932 598.265 932 602.062Z"/></g></g></g><path d="M362.5 383.025C362.5 277.801 447.801 192.5 553.025 192.5L1315.1 192.5C1420.32 192.5 1505.62 277.801 1505.62 383.025L1505.62 2171.97C1505.62 2277.2 1420.32 2362.5 1315.1 2362.5L553.025 2362.5C447.801 2362.5 362.5 2277.2 362.5 2171.97Z" stroke="#2F528F" stroke-width="4.58333" stroke-miterlimit="8" fill="none" fill-rule="evenodd"/><text font-family="Calibri,Calibri_MSFontService,sans-serif" font-weight="400" font-size="83" transform="matrix(1 0 0 1 1129.59 604)">OAI</text><text font-family="Calibri,Calibri_MSFontService,sans-serif" font-weight="400" font-size="83" transform="matrix(1 0 0 1 1251.28 604)">-</text><text font-family="Calibri,Calibri_MSFontService,sans-serif" font-weight="400" font-size="83" transform="matrix(1 0 0 1 1276.49 604)">5GCN</text><text font-family="Calibri,Calibri_MSFontService,sans-serif" font-weight="400" font-size="83" transform="matrix(1 0 0 1 1129.59 1122)">OAI</text><text font-family="Calibri,Calibri_MSFontService,sans-serif" font-weight="400" font-size="83" transform="matrix(1 0 0 1 1251.28 1122)">-</text><text font-family="Calibri,Calibri_MSFontService,sans-serif" font-weight="400" font-size="83" transform="matrix(1 0 0 1 1276.49 1122)">gNB</text><path d="M932.5 743.5 932.5 931.231" stroke="#000000" stroke-width="4.58333" stroke-miterlimit="8" fill="none" fill-rule="evenodd"/><g clip-path="url(#clip4)"><g clip-path="url(#clip5)"><g clip-path="url(#clip6)"><path d="M870.125 1496.12 863.25 1496.12 863.25 1729.95 1000.75 1729.95 1000.75 1496.12 870.125 1496.12ZM993.875 1723.08 870.125 1723.08 870.125 1503 993.875 1503Z"/><path d="M1011.06 1461.75 852.937 1461.75C849.145 1461.76 846.074 1464.83 846.062 1468.62L846.062 1757.46C846.075 1761.25 849.146 1764.32 852.937 1764.34L1011.06 1764.34C1014.85 1764.32 1017.92 1761.25 1017.94 1757.46L1017.94 1468.62C1017.92 1464.83 1014.85 1461.76 1011.06 1461.75ZM1011.06 1757.46 852.937 1757.46 852.937 1468.62 1011.06 1468.62Z"/><path d="M918.25 1485.81 949.187 1485.81C951.086 1485.81 952.625 1484.27 952.625 1482.37 952.625 1480.48 951.086 1478.94 949.187 1478.94L918.25 1478.94C916.351 1478.94 914.812 1480.48 914.812 1482.37 914.812 1484.27 916.351 1485.81 918.25 1485.81Z"/></g></g></g><g clip-path="url(#clip7)"><g clip-path="url(#clip8)"><g clip-path="url(#clip9)"><path d="M912.107 1042.98C900.032 1030.94 900.01 1011.38 912.058 999.304 912.074 999.288 912.091 999.272 912.107 999.255L907.25 994.395C892.49 1009.12 892.46 1033.02 907.183 1047.78 907.205 1047.8 907.228 1047.82 907.25 1047.84Z"/><path d="M960.7 1047.84C975.459 1033.12 975.485 1009.21 960.757 994.452 960.738 994.433 960.719 994.414 960.7 994.395L955.839 999.255C967.914 1011.3 967.936 1030.86 955.888 1042.93 955.872 1042.95 955.855 1042.97 955.839 1042.98Z"/><path d="M887.811 1067.28 892.671 1062.42C869.86 1039.66 869.818 1002.72 892.577 979.911 892.608 979.879 892.64 979.848 892.671 979.816L887.811 974.959C862.317 1000.4 862.272 1041.69 887.71 1067.18 887.743 1067.21 887.777 1067.25 887.811 1067.28Z"/><path d="M994.71 1081.86 999.571 1086.72C1035.8 1050.57 1035.87 991.901 999.72 955.673 999.67 955.623 999.621 955.573 999.571 955.523L994.71 960.38C1028.26 993.847 1028.32 1048.17 994.854 1081.71 994.806 1081.76 994.758 1081.81 994.71 1081.86Z"/><path d="M873.236 1081.86C839.691 1048.39 839.627 994.069 873.092 960.524 873.14 960.476 873.188 960.428 873.236 960.38L868.375 955.523C832.147 991.669 832.081 1050.34 868.226 1086.57 868.276 1086.62 868.325 1086.67 868.375 1086.72Z"/><path d="M980.125 1067.28C1005.62 1041.84 1005.66 1000.55 980.226 975.06 980.192 975.026 980.159 974.993 980.125 974.959L975.264 979.816C998.076 1002.58 998.118 1039.52 975.359 1062.33 975.328 1062.36 975.296 1062.39 975.264 1062.42Z"/><path d="M1035.34 1218.99C1035.35 1218.86 1035.35 1218.73 1035.34 1218.6 1035.33 1218.32 1035.28 1218.05 1035.2 1217.78 1035.16 1217.65 1035.12 1217.52 1035.07 1217.4 1035.04 1217.34 1035.04 1217.27 1035.01 1217.2L938.923 1030.11C943.287 1027.74 945.332 1022.58 943.78 1017.87 942.794 1014.76 940.368 1012.33 937.27 1011.33 931.851 1009.58 926.036 1012.55 924.282 1017.97 922.772 1022.63 924.752 1027.71 929.02 1030.12L832.945 1217.2C832.914 1217.27 832.911 1217.34 832.883 1217.4 832.832 1217.52 832.79 1217.65 832.756 1217.78 832.673 1218.04 832.623 1218.32 832.608 1218.59 832.599 1218.73 832.599 1218.86 832.608 1218.99 832.629 1219.33 832.701 1219.66 832.821 1219.97 832.83 1220.04 832.843 1220.1 832.859 1220.16L832.89 1220.2C832.956 1220.32 833.029 1220.44 833.11 1220.55 833.209 1220.73 833.324 1220.91 833.454 1221.07L833.491 1221.13C833.529 1221.16 833.584 1221.18 833.622 1221.21 833.879 1221.46 834.174 1221.67 834.495 1221.83 834.591 1221.87 834.684 1221.92 834.787 1221.96 835.173 1222.11 835.582 1222.2 835.997 1222.21 836.471 1222.21 836.94 1222.11 837.372 1221.92L934.028 1179.51 1030.56 1221.92C1030.95 1222.09 1031.37 1222.18 1031.8 1222.18 1031.85 1222.18 1031.89 1222.21 1031.94 1222.21 1032.07 1222.2 1032.2 1222.19 1032.33 1222.16 1032.47 1222.15 1032.61 1222.13 1032.76 1222.1 1032.94 1222.05 1033.12 1221.98 1033.29 1221.9 1033.43 1221.85 1033.56 1221.79 1033.69 1221.72 1033.86 1221.61 1034.02 1221.48 1034.17 1221.35 1034.26 1221.27 1034.37 1221.22 1034.45 1221.13 1034.46 1221.13 1034.47 1221.09 1034.49 1221.07 1034.61 1220.93 1034.71 1220.77 1034.81 1220.61 1034.9 1220.48 1034.99 1220.34 1035.07 1220.19L1035.09 1220.16C1035.11 1220.11 1035.09 1220.06 1035.12 1220.01 1035.25 1219.68 1035.32 1219.34 1035.34 1218.99ZM942.577 1175.75 994.322 1153.04 1024.42 1211.65C1024.43 1211.66 1024.42 1211.69 1024.4 1211.7 1024.39 1211.7 1024.38 1211.7 1024.37 1211.7ZM903.895 1094.09 927.383 1109.99 878.42 1143.7ZM989.557 1143.76 939.58 1109.94 963.67 1093.35ZM933.464 1105.8 907.057 1087.93 933.942 1035.57C933.95 1035.56 933.971 1035.55 933.988 1035.56 933.995 1035.56 934 1035.57 934.004 1035.57L960.504 1087.18ZM933.499 1114.13 985.58 1149.37 934.018 1172 882.397 1149.31ZM873.655 1152.97 925.469 1175.75 843.57 1211.7C843.553 1211.71 843.533 1211.7 843.526 1211.68 843.522 1211.67 843.522 1211.66 843.526 1211.65Z"/></g></g></g><text font-family="Calibri,Calibri_MSFontService,sans-serif" font-weight="400" font-size="83" transform="matrix(1 0 0 1 1135.38 1640)">OAI</text><text font-family="Calibri,Calibri_MSFontService,sans-serif" font-weight="400" font-size="83" transform="matrix(1 0 0 1 1257.07 1640)">-</text><text font-family="Calibri,Calibri_MSFontService,sans-serif" font-weight="400" font-size="83" transform="matrix(1 0 0 1 1282.27 1640)">UE</text><path d="M932.5 1260.5 932.5 1448.23" stroke="#000000" stroke-width="4.58333" stroke-linecap="square" stroke-miterlimit="8" stroke-dasharray="13.75 4.58333" fill="none" fill-rule="evenodd"/><text font-family="Calibri,Calibri_MSFontService,sans-serif" font-weight="400" font-size="83" transform="matrix(1 0 0 1 755.111 285)">Scenario</text><text font-family="Calibri,Calibri_MSFontService,sans-serif" font-weight="400" font-size="83" transform="matrix(1 0 0 1 1062.19 285)">1</text><text font-family="Calibri,Calibri_MSFontService,sans-serif" font-weight="400" font-size="55" transform="matrix(1 0 0 1 964.59 854)">S1</text><text font-family="Calibri,Calibri_MSFontService,sans-serif" font-weight="400" font-size="55" transform="matrix(1 0 0 1 962.965 1370)">n78</text><g clip-path="url(#clip10)"><g clip-path="url(#clip11)"><g clip-path="url(#clip12)"><path d="M2196.75 677.687 2100.5 677.687 2100.5 663.937 2076.44 663.937 2076.44 633 2169.25 633C2176.84 633 2183 626.844 2183 619.25L2183 584.875C2182.99 580.911 2181.25 577.148 2178.25 574.562 2181.25 571.977 2182.99 568.214 2183 564.25L2183 529.875C2182.99 525.911 2181.25 522.148 2178.25 519.562 2181.25 516.977 2182.99 513.214 2183 509.25L2183 474.875C2183 467.281 2176.84 461.125 2169.25 461.125L1976.75 461.125C1969.16 461.125 1963 467.281 1963 474.875L1963 509.25C1963.01 513.214 1964.75 516.977 1967.75 519.562 1964.75 522.148 1963.01 525.911 1963 529.875L1963 564.25C1963.01 568.214 1964.75 571.977 1967.75 574.562 1964.75 577.148 1963.01 580.911 1963 584.875L1963 619.25C1963 626.844 1969.16 633 1976.75 633L2069.56 633 2069.56 663.937 2045.5 663.937 2045.5 677.687 1949.25 677.687 1949.25 684.562 2045.5 684.562 2045.5 698.312 2100.5 698.312 2100.5 684.562 2196.75 684.562ZM1969.88 509.25 1969.88 474.875C1969.88 471.078 1972.95 468 1976.75 468L2169.25 468C2173.05 468 2176.12 471.078 2176.12 474.875L2176.12 509.25C2176.12 513.047 2173.05 516.125 2169.25 516.125L1976.75 516.125C1972.95 516.125 1969.88 513.047 1969.88 509.25ZM1969.88 564.25 1969.88 529.875C1969.88 526.078 1972.95 523 1976.75 523L2169.25 523C2173.05 523 2176.12 526.078 2176.12 529.875L2176.12 564.25C2176.12 568.047 2173.05 571.125 2169.25 571.125L1976.75 571.125C1972.95 571.125 1969.88 568.047 1969.88 564.25ZM1969.88 619.25 1969.88 584.875C1969.88 581.078 1972.95 578 1976.75 578L2169.25 578C2173.05 578 2176.12 581.078 2176.12 584.875L2176.12 619.25C2176.12 623.047 2173.05 626.125 2169.25 626.125L1976.75 626.125C1972.95 626.125 1969.88 623.047 1969.88 619.25ZM2093.62 691.437 2052.38 691.437 2052.38 670.812 2093.62 670.812Z"/><path d="M2004.25 492.062C2004.25 495.859 2001.17 498.937 1997.38 498.937 1993.58 498.937 1990.5 495.859 1990.5 492.062 1990.5 488.265 1993.58 485.187 1997.38 485.187 2001.17 485.187 2004.25 488.265 2004.25 492.062Z"/><path d="M2038.63 492.062C2038.63 495.859 2035.55 498.937 2031.75 498.937 2027.95 498.937 2024.88 495.859 2024.88 492.062 2024.88 488.265 2027.95 485.187 2031.75 485.187 2035.55 485.187 2038.63 488.265 2038.63 492.062Z"/><path d="M2073 492.062C2073 495.859 2069.92 498.937 2066.12 498.937 2062.33 498.937 2059.25 495.859 2059.25 492.062 2059.25 488.265 2062.33 485.187 2066.12 485.187 2069.92 485.187 2073 488.265 2073 492.062Z"/><path d="M2004.25 547.062C2004.25 550.859 2001.17 553.937 1997.38 553.937 1993.58 553.937 1990.5 550.859 1990.5 547.062 1990.5 543.265 1993.58 540.187 1997.38 540.187 2001.17 540.187 2004.25 543.265 2004.25 547.062Z"/><path d="M2038.63 547.062C2038.63 550.859 2035.55 553.937 2031.75 553.937 2027.95 553.937 2024.88 550.859 2024.88 547.062 2024.88 543.265 2027.95 540.187 2031.75 540.187 2035.55 540.187 2038.63 543.265 2038.63 547.062Z"/><path d="M2073 547.062C2073 550.859 2069.92 553.937 2066.12 553.937 2062.33 553.937 2059.25 550.859 2059.25 547.062 2059.25 543.265 2062.33 540.187 2066.12 540.187 2069.92 540.187 2073 543.265 2073 547.062Z"/><path d="M2004.25 602.062C2004.25 605.859 2001.17 608.937 1997.38 608.937 1993.58 608.937 1990.5 605.859 1990.5 602.062 1990.5 598.265 1993.58 595.187 1997.38 595.187 2001.17 595.187 2004.25 598.265 2004.25 602.062Z"/><path d="M2038.63 602.062C2038.63 605.859 2035.55 608.937 2031.75 608.937 2027.95 608.937 2024.88 605.859 2024.88 602.062 2024.88 598.265 2027.95 595.187 2031.75 595.187 2035.55 595.187 2038.63 598.265 2038.63 602.062Z"/><path d="M2073 602.062C2073 605.859 2069.92 608.937 2066.12 608.937 2062.33 608.937 2059.25 605.859 2059.25 602.062 2059.25 598.265 2062.33 595.187 2066.12 595.187 2069.92 595.187 2073 598.265 2073 602.062Z"/></g></g></g><text font-family="Calibri,Calibri_MSFontService,sans-serif" font-weight="400" font-size="83" transform="matrix(1 0 0 1 2271.11 604)">OAI</text><text font-family="Calibri,Calibri_MSFontService,sans-serif" font-weight="400" font-size="83" transform="matrix(1 0 0 1 2392.79 604)">-</text><text font-family="Calibri,Calibri_MSFontService,sans-serif" font-weight="400" font-size="83" transform="matrix(1 0 0 1 2418 604)">5GCN</text><text font-family="Calibri,Calibri_MSFontService,sans-serif" font-weight="400" font-size="83" transform="matrix(1 0 0 1 2271.52 1637)">gNB</text><text font-family="Calibri,Calibri_MSFontService,sans-serif" font-weight="400" font-size="83" transform="matrix(1 0 0 1 2408.45 1637)">-</text><text font-family="Calibri,Calibri_MSFontService,sans-serif" font-weight="400" font-size="83" transform="matrix(1 0 0 1 2433.65 1637)">DU</text><path d="M2073.5 743.5 2073.5 929.898" stroke="#000000" stroke-width="4.58333" stroke-miterlimit="8" fill="none" fill-rule="evenodd"/><g clip-path="url(#clip13)"><g clip-path="url(#clip14)"><g clip-path="url(#clip15)"><path d="M2012.12 2011.13 2005.25 2011.13 2005.25 2244.95 2142.75 2244.95 2142.75 2011.13 2012.12 2011.13ZM2135.88 2238.08 2012.12 2238.08 2012.12 2018 2135.88 2018Z"/><path d="M2153.06 1976.75 1994.94 1976.75C1991.15 1976.76 1988.07 1979.83 1988.06 1983.63L1988.06 2272.46C1988.08 2276.25 1991.15 2279.32 1994.94 2279.34L2153.06 2279.34C2156.85 2279.32 2159.92 2276.25 2159.94 2272.46L2159.94 1983.63C2159.92 1979.83 2156.85 1976.76 2153.06 1976.75ZM2153.06 2272.46 1994.94 2272.46 1994.94 1983.63 2153.06 1983.63Z"/><path d="M2060.25 2000.81 2091.19 2000.81C2093.09 2000.81 2094.62 1999.27 2094.62 1997.38 2094.62 1995.48 2093.09 1993.94 2091.19 1993.94L2060.25 1993.94C2058.35 1993.94 2056.81 1995.48 2056.81 1997.38 2056.81 1999.27 2058.35 2000.81 2060.25 2000.81Z"/></g></g></g><g clip-path="url(#clip16)"><g clip-path="url(#clip17)"><g clip-path="url(#clip18)"><path d="M2054.11 1557.98C2042.03 1545.94 2042.01 1526.38 2054.06 1514.3 2054.07 1514.29 2054.09 1514.27 2054.11 1514.26L2049.25 1509.39C2034.49 1524.12 2034.46 1548.02 2049.18 1562.78 2049.21 1562.8 2049.23 1562.82 2049.25 1562.84Z"/><path d="M2102.7 1562.84C2117.46 1548.12 2117.48 1524.21 2102.76 1509.45 2102.74 1509.43 2102.72 1509.41 2102.7 1509.39L2097.84 1514.26C2109.91 1526.3 2109.94 1545.86 2097.89 1557.93 2097.87 1557.95 2097.86 1557.97 2097.84 1557.98Z"/><path d="M2029.81 1582.28 2034.67 1577.42C2011.86 1554.66 2011.82 1517.72 2034.58 1494.91 2034.61 1494.88 2034.64 1494.85 2034.67 1494.82L2029.81 1489.96C2004.32 1515.4 2004.27 1556.69 2029.71 1582.18 2029.74 1582.21 2029.78 1582.25 2029.81 1582.28Z"/><path d="M2136.71 1596.86 2141.57 1601.72C2177.8 1565.57 2177.87 1506.9 2141.72 1470.67 2141.67 1470.62 2141.62 1470.57 2141.57 1470.52L2136.71 1475.38C2170.26 1508.85 2170.32 1563.17 2136.85 1596.72 2136.81 1596.76 2136.76 1596.81 2136.71 1596.86Z"/><path d="M2015.24 1596.86C1981.69 1563.39 1981.63 1509.07 2015.09 1475.52 2015.14 1475.48 2015.19 1475.43 2015.24 1475.38L2010.38 1470.52C1974.15 1506.67 1974.08 1565.34 2010.23 1601.57 2010.28 1601.62 2010.33 1601.67 2010.38 1601.72Z"/><path d="M2122.12 1582.28C2147.62 1556.84 2147.66 1515.55 2122.23 1490.06 2122.19 1490.03 2122.16 1489.99 2122.12 1489.96L2117.26 1494.82C2140.08 1517.58 2140.12 1554.52 2117.36 1577.33 2117.33 1577.36 2117.3 1577.39 2117.26 1577.42Z"/><path d="M2177.34 1733.99C2177.35 1733.86 2177.35 1733.73 2177.34 1733.6 2177.33 1733.32 2177.28 1733.05 2177.2 1732.78 2177.16 1732.65 2177.12 1732.52 2177.07 1732.4 2177.04 1732.34 2177.04 1732.27 2177.01 1732.2L2080.92 1545.11C2085.29 1542.74 2087.33 1537.59 2085.78 1532.87 2084.79 1529.76 2082.37 1527.33 2079.27 1526.33 2073.85 1524.58 2068.04 1527.55 2066.28 1532.97 2064.77 1537.63 2066.75 1542.71 2071.02 1545.12L1974.94 1732.2C1974.91 1732.27 1974.91 1732.34 1974.88 1732.4 1974.83 1732.52 1974.79 1732.65 1974.76 1732.78 1974.67 1733.04 1974.62 1733.32 1974.61 1733.59 1974.6 1733.73 1974.6 1733.86 1974.61 1733.99 1974.63 1734.33 1974.7 1734.66 1974.82 1734.97 1974.83 1735.04 1974.84 1735.1 1974.86 1735.16L1974.89 1735.2C1974.96 1735.32 1975.03 1735.44 1975.11 1735.55 1975.21 1735.73 1975.32 1735.91 1975.45 1736.07L1975.49 1736.13C1975.53 1736.16 1975.58 1736.18 1975.62 1736.21 1975.88 1736.46 1976.17 1736.67 1976.5 1736.83 1976.59 1736.87 1976.68 1736.92 1976.79 1736.96 1977.17 1737.11 1977.58 1737.2 1978 1737.21 1978.47 1737.21 1978.94 1737.11 1979.37 1736.92L2076.03 1694.51 2172.56 1736.92C2172.95 1737.09 2173.37 1737.18 2173.8 1737.18 2173.85 1737.18 2173.89 1737.22 2173.94 1737.22 2174.07 1737.2 2174.2 1737.19 2174.33 1737.16 2174.47 1737.15 2174.61 1737.13 2174.76 1737.1 2174.94 1737.05 2175.12 1736.98 2175.29 1736.9 2175.43 1736.85 2175.56 1736.79 2175.69 1736.72 2175.86 1736.61 2176.02 1736.48 2176.17 1736.35 2176.26 1736.27 2176.37 1736.22 2176.45 1736.13 2176.46 1736.13 2176.47 1736.09 2176.49 1736.07 2176.61 1735.93 2176.71 1735.77 2176.81 1735.61 2176.9 1735.48 2176.99 1735.34 2177.07 1735.19L2177.09 1735.16C2177.11 1735.11 2177.09 1735.06 2177.12 1735.01 2177.25 1734.69 2177.32 1734.34 2177.34 1733.99ZM2084.58 1690.75 2136.32 1668.04 2166.42 1726.65C2166.43 1726.66 2166.42 1726.69 2166.4 1726.7 2166.39 1726.7 2166.38 1726.7 2166.37 1726.7ZM2045.89 1609.09 2069.38 1624.99 2020.42 1658.7ZM2131.56 1658.76 2081.58 1624.94 2105.67 1608.35ZM2075.46 1620.8 2049.06 1602.93 2075.94 1550.57C2075.95 1550.56 2075.97 1550.55 2075.99 1550.56 2076 1550.56 2076 1550.57 2076 1550.57L2102.5 1602.18ZM2075.5 1629.13 2127.58 1664.37 2076.02 1687 2024.4 1664.31ZM2015.66 1667.97 2067.47 1690.75 1985.57 1726.7C1985.55 1726.71 1985.53 1726.7 1985.53 1726.68 1985.52 1726.67 1985.52 1726.66 1985.53 1726.66Z"/></g></g></g><text font-family="Calibri,Calibri_MSFontService,sans-serif" font-weight="400" font-size="83" transform="matrix(1 0 0 1 2277.31 2155)">OAI</text><text font-family="Calibri,Calibri_MSFontService,sans-serif" font-weight="400" font-size="83" transform="matrix(1 0 0 1 2398.99 2155)">-</text><text font-family="Calibri,Calibri_MSFontService,sans-serif" font-weight="400" font-size="83" transform="matrix(1 0 0 1 2424.2 2155)">UE</text><path d="M2074.5 1775.5 2074.5 1963.23" stroke="#000000" stroke-width="4.58333" stroke-linecap="square" stroke-miterlimit="8" stroke-dasharray="13.75 4.58333" fill="none" fill-rule="evenodd"/><text font-family="Calibri,Calibri_MSFontService,sans-serif" font-weight="400" font-size="55" transform="matrix(1 0 0 1 2106.11 854)">S1</text><text font-family="Calibri,Calibri_MSFontService,sans-serif" font-weight="400" font-size="55" transform="matrix(1 0 0 1 2104.89 1885)">n78</text><g clip-path="url(#clip19)"><g clip-path="url(#clip20)"><g clip-path="url(#clip21)"><path d="M2172.69 1200.56 2172.69 994.313C2172.69 974.217 2121.33 963.375 2073 963.375 2024.67 963.375 1973.31 974.217 1973.31 994.313L1973.31 1200.56C1973.31 1220.66 2024.67 1231.5 2073 1231.5 2121.33 1231.5 2172.69 1220.66 2172.69 1200.56ZM2073 970.25C2126.12 970.25 2165.81 982.969 2165.81 994.313 2165.81 1005.66 2126.12 1018.38 2073 1018.38 2019.88 1018.38 1980.19 1005.66 1980.19 994.313 1980.19 982.969 2019.88 970.25 2073 970.25ZM1980.19 1006.21C1995.76 1018.65 2035.3 1025.25 2073 1025.25 2110.7 1025.25 2150.24 1018.65 2165.81 1006.21L2165.81 1063.06C2165.81 1074.41 2126.12 1087.13 2073 1087.13 2019.88 1087.13 1980.19 1074.41 1980.19 1063.06ZM1980.19 1074.96C1995.76 1087.4 2035.3 1094 2073 1094 2110.7 1094 2150.24 1087.4 2165.81 1074.96L2165.81 1131.81C2165.81 1143.16 2126.12 1155.88 2073 1155.88 2019.88 1155.88 1980.19 1143.16 1980.19 1131.81ZM1980.19 1200.56 1980.19 1143.71C1995.76 1156.15 2035.3 1162.75 2073 1162.75 2110.7 1162.75 2150.24 1156.15 2165.81 1143.71L2165.81 1200.56C2165.81 1211.91 2126.12 1224.63 2073 1224.63 2019.88 1224.63 1980.19 1211.91 1980.19 1200.56Z"/><path d="M2148.62 1052.75C2148.62 1056.55 2145.55 1059.63 2141.75 1059.63 2137.95 1059.63 2134.88 1056.55 2134.88 1052.75 2134.88 1048.95 2137.95 1045.88 2141.75 1045.88 2145.55 1045.88 2148.62 1048.95 2148.62 1052.75Z"/><path d="M2148.62 1121.5C2148.62 1125.3 2145.55 1128.38 2141.75 1128.38 2137.95 1128.38 2134.88 1125.3 2134.88 1121.5 2134.88 1117.7 2137.95 1114.63 2141.75 1114.63 2145.55 1114.63 2148.62 1117.7 2148.62 1121.5Z"/><path d="M2148.62 1190.25C2148.62 1194.05 2145.55 1197.13 2141.75 1197.13 2137.95 1197.13 2134.88 1194.05 2134.88 1190.25 2134.88 1186.45 2137.95 1183.38 2141.75 1183.38 2145.55 1183.38 2148.62 1186.45 2148.62 1190.25Z"/></g></g></g><path d="M2073.5 1259.5 2073.91 1445.9" stroke="#000000" stroke-width="4.58333" stroke-miterlimit="8" fill="none" fill-rule="evenodd"/><text font-family="Calibri,Calibri_MSFontService,sans-serif" font-weight="400" font-size="55" transform="matrix(1 0 0 1 2104.89 1368)">F1</text><text font-family="Calibri,Calibri_MSFontService,sans-serif" font-weight="400" font-size="83" transform="matrix(1 0 0 1 2271.11 1119)">gNB</text><text font-family="Calibri,Calibri_MSFontService,sans-serif" font-weight="400" font-size="83" transform="matrix(1 0 0 1 2408.03 1119)">-</text><text font-family="Calibri,Calibri_MSFontService,sans-serif" font-weight="400" font-size="83" transform="matrix(1 0 0 1 2433.24 1119)">CU</text><path d="M1546.5 373.004C1546.5 267.792 1631.79 182.5 1737 182.5L2499 182.5C2604.21 182.5 2689.5 267.792 2689.5 373.004L2689.5 2163C2689.5 2268.21 2604.21 2353.5 2499 2353.5L1737 2353.5C1631.79 2353.5 1546.5 2268.21 1546.5 2163Z" stroke="#2F528F" stroke-width="4.58333" stroke-miterlimit="8" fill="none" fill-rule="evenodd"/><text font-family="Calibri,Calibri_MSFontService,sans-serif" font-weight="400" font-size="83" transform="matrix(1 0 0 1 1898.25 279)">Scenario</text><text font-family="Calibri,Calibri_MSFontService,sans-serif" font-weight="400" font-size="83" transform="matrix(1 0 0 1 2205.34 279)">2</text></g></svg>